# Blender v2.77 (sub 0) OBJ File: 'die.blend'
# www.blender.org
o Cube
v 1.000000 -1.000000 -1.000000
v 1.000000 -1.000000 1.000000
v -1.000000 -1.000000 1.000000
v -1.000000 -1.000000 -1.000000
v 1.000000 1.000000 -0.999999
v 0.999999 1.000000 1.000001
v -1.000000 1.000000 1.000000
v -1.000000 1.000000 -1.000000
vt 0.302623 0.530128
vt 0.021113 0.811538
vt 0.019194 0.530128
vt 0.639795 0.470513
vt 0.358285 0.191026
vt 0.639795 0.189103
vt 0.699936 0.812180
vt 0.979526 0.530769
vt 0.975688 0.812179
vt 0.357006 0.530769
vt 0.640435 0.810256
vt 0.358925 0.810256
vt 0.976967 0.469872
vt 0.697377 0.190385
vt 0.978887 0.192308
vt 0.300704 0.187180
vt 0.017275 0.470513
vt 0.017274 0.189103
vt 0.302623 0.809615
vt 0.362124 0.470513
vt 0.696097 0.532692
vt 0.640435 0.532692
vt 0.697377 0.473718
vt 0.298784 0.470513
vn 0.000000 -1.000000 0.000000
vn 0.000000 1.000000 0.000000
vn 1.000000 -0.000000 0.000000
vn 0.000000 -0.000000 1.000000
vn -1.000000 -0.000000 -0.000000
vn 0.000000 0.000000 -1.000000
s off
f 2/1/1 4/2/1 1/3/1
f 8/4/2 6/5/2 5/6/2
f 5/7/3 2/8/3 1/9/3
f 6/10/4 3/11/4 2/12/4
f 3/13/5 8/14/5 4/15/5
f 1/16/6 8/17/6 5/18/6
f 2/1/1 3/19/1 4/2/1
f 8/4/2 7/20/2 6/5/2
f 5/7/3 6/21/3 2/8/3
f 6/10/4 7/22/4 3/11/4
f 3/13/5 7/23/5 8/14/5
f 1/16/6 4/24/6 8/17/6
